<mxfile host="app.diagrams.net" modified="2021-11-16T18:44:08.558Z" agent="5.0 (Windows)" etag="NuwH5EzSF7dRnJNHDf2t" version="15.7.4" type="github">
  <diagram id="C5RBs43oDa-KdzZeNtuy" name="Page-1">
    <mxGraphModel dx="3544" dy="3794" grid="1" gridSize="10" guides="1" tooltips="1" connect="1" arrows="1" fold="1" page="1" pageScale="1" pageWidth="827" pageHeight="1169" math="0" shadow="0">
      <root>
        <mxCell id="WIyWlLk6GJQsqaUBKTNV-0" />
        <mxCell id="WIyWlLk6GJQsqaUBKTNV-1" parent="WIyWlLk6GJQsqaUBKTNV-0" />
        <mxCell id="w9qzQ3jvZIOm9cnqxgEa-3" style="edgeStyle=orthogonalEdgeStyle;rounded=0;orthogonalLoop=1;jettySize=auto;html=1;fontSize=16;" parent="WIyWlLk6GJQsqaUBKTNV-1" source="WIyWlLk6GJQsqaUBKTNV-6" target="74fVWN5UfbGMYc25_52T-164" edge="1">
          <mxGeometry relative="1" as="geometry">
            <mxPoint x="-50" y="930" as="targetPoint" />
          </mxGeometry>
        </mxCell>
        <mxCell id="74fVWN5UfbGMYc25_52T-89" value="go to terminal" style="edgeLabel;html=1;align=center;verticalAlign=middle;resizable=0;points=[];fontSize=16;" parent="w9qzQ3jvZIOm9cnqxgEa-3" vertex="1" connectable="0">
          <mxGeometry x="-0.175" relative="1" as="geometry">
            <mxPoint x="127" as="offset" />
          </mxGeometry>
        </mxCell>
        <mxCell id="w9qzQ3jvZIOm9cnqxgEa-8" style="edgeStyle=orthogonalEdgeStyle;rounded=0;orthogonalLoop=1;jettySize=auto;html=1;exitX=1;exitY=1;exitDx=0;exitDy=0;fontSize=16;" parent="WIyWlLk6GJQsqaUBKTNV-1" source="WIyWlLk6GJQsqaUBKTNV-6" target="74fVWN5UfbGMYc25_52T-156" edge="1">
          <mxGeometry relative="1" as="geometry">
            <mxPoint x="620" y="980" as="targetPoint" />
          </mxGeometry>
        </mxCell>
        <mxCell id="74fVWN5UfbGMYc25_52T-116" value="&lt;div style=&quot;font-size: 16px;&quot;&gt;buy ticket&lt;/div&gt;" style="edgeLabel;html=1;align=center;verticalAlign=middle;resizable=0;points=[];fontSize=16;" parent="w9qzQ3jvZIOm9cnqxgEa-8" vertex="1" connectable="0">
          <mxGeometry x="-0.3689" y="1" relative="1" as="geometry">
            <mxPoint x="-12" as="offset" />
          </mxGeometry>
        </mxCell>
        <mxCell id="74fVWN5UfbGMYc25_52T-178" value="view monitors" style="edgeStyle=orthogonalEdgeStyle;rounded=0;orthogonalLoop=1;jettySize=auto;html=1;fontSize=16;" parent="WIyWlLk6GJQsqaUBKTNV-1" source="WIyWlLk6GJQsqaUBKTNV-6" target="74fVWN5UfbGMYc25_52T-177" edge="1">
          <mxGeometry x="-0.0732" relative="1" as="geometry">
            <Array as="points">
              <mxPoint x="200" y="910" />
            </Array>
            <mxPoint as="offset" />
          </mxGeometry>
        </mxCell>
        <mxCell id="p_1daK5cfYvLZlIFTqny-16" value="view boardinpass" style="edgeStyle=orthogonalEdgeStyle;rounded=0;orthogonalLoop=1;jettySize=auto;html=1;exitX=1;exitY=0;exitDx=0;exitDy=0;fontSize=16;" parent="WIyWlLk6GJQsqaUBKTNV-1" source="WIyWlLk6GJQsqaUBKTNV-6" target="p_1daK5cfYvLZlIFTqny-13" edge="1">
          <mxGeometry x="-0.2766" relative="1" as="geometry">
            <mxPoint as="offset" />
          </mxGeometry>
        </mxCell>
        <mxCell id="p_1daK5cfYvLZlIFTqny-21" value="board plane" style="edgeStyle=orthogonalEdgeStyle;rounded=0;orthogonalLoop=1;jettySize=auto;html=1;fontSize=16;" parent="WIyWlLk6GJQsqaUBKTNV-1" source="WIyWlLk6GJQsqaUBKTNV-6" target="p_1daK5cfYvLZlIFTqny-23" edge="1">
          <mxGeometry x="-0.9155" relative="1" as="geometry">
            <mxPoint x="4.547473508864641e-13" y="2220" as="targetPoint" />
            <Array as="points">
              <mxPoint x="380" y="2140" />
              <mxPoint y="2140" />
            </Array>
            <mxPoint as="offset" />
          </mxGeometry>
        </mxCell>
        <mxCell id="mKmZwNHc9_lIJII-hjff-2" value="wait" style="edgeStyle=orthogonalEdgeStyle;rounded=0;orthogonalLoop=1;jettySize=auto;html=1;fontSize=16;" edge="1" parent="WIyWlLk6GJQsqaUBKTNV-1" source="WIyWlLk6GJQsqaUBKTNV-6" target="mKmZwNHc9_lIJII-hjff-1">
          <mxGeometry relative="1" as="geometry" />
        </mxCell>
        <mxCell id="WIyWlLk6GJQsqaUBKTNV-6" value="&lt;div style=&quot;font-size: 16px;&quot;&gt;Process&lt;/div&gt;&lt;div style=&quot;font-size: 16px;&quot;&gt;action&lt;br style=&quot;font-size: 16px;&quot;&gt;&lt;/div&gt;" style="rhombus;whiteSpace=wrap;html=1;shadow=0;fontFamily=Helvetica;fontSize=16;align=center;strokeWidth=1;spacing=6;spacingTop=-4;" parent="WIyWlLk6GJQsqaUBKTNV-1" vertex="1">
          <mxGeometry x="330" y="890" width="100" height="80" as="geometry" />
        </mxCell>
        <mxCell id="w9qzQ3jvZIOm9cnqxgEa-14" value="exit" style="edgeStyle=orthogonalEdgeStyle;rounded=0;orthogonalLoop=1;jettySize=auto;html=1;endArrow=blockThin;endFill=1;fontSize=16;" parent="WIyWlLk6GJQsqaUBKTNV-1" source="WIyWlLk6GJQsqaUBKTNV-6" target="w9qzQ3jvZIOm9cnqxgEa-0" edge="1">
          <mxGeometry x="-0.654" relative="1" as="geometry">
            <mxPoint x="740" y="894" as="sourcePoint" />
            <mxPoint x="670" y="1324" as="targetPoint" />
            <mxPoint as="offset" />
            <Array as="points">
              <mxPoint x="310" y="960" />
              <mxPoint x="310" y="1338" />
            </Array>
          </mxGeometry>
        </mxCell>
        <mxCell id="w9qzQ3jvZIOm9cnqxgEa-0" value="End" style="ellipse;whiteSpace=wrap;html=1;fontSize=16;" parent="WIyWlLk6GJQsqaUBKTNV-1" vertex="1">
          <mxGeometry x="177.5" y="1298" width="120" height="80" as="geometry" />
        </mxCell>
        <mxCell id="74fVWN5UfbGMYc25_52T-83" style="edgeStyle=orthogonalEdgeStyle;rounded=0;orthogonalLoop=1;jettySize=auto;html=1;fontSize=16;" parent="WIyWlLk6GJQsqaUBKTNV-1" source="74fVWN5UfbGMYc25_52T-1" target="74fVWN5UfbGMYc25_52T-82" edge="1">
          <mxGeometry relative="1" as="geometry" />
        </mxCell>
        <mxCell id="74fVWN5UfbGMYc25_52T-1" value="&lt;font style=&quot;font-size: 16px&quot;&gt;Initialize&lt;/font&gt;" style="rounded=1;whiteSpace=wrap;html=1;fontSize=16;" parent="WIyWlLk6GJQsqaUBKTNV-1" vertex="1">
          <mxGeometry x="320" y="-1580" width="120" height="50" as="geometry" />
        </mxCell>
        <mxCell id="74fVWN5UfbGMYc25_52T-19" style="edgeStyle=orthogonalEdgeStyle;rounded=0;orthogonalLoop=1;jettySize=auto;html=1;exitX=0.5;exitY=1;exitDx=0;exitDy=0;entryX=0.5;entryY=0;entryDx=0;entryDy=0;fontSize=16;" parent="WIyWlLk6GJQsqaUBKTNV-1" source="74fVWN5UfbGMYc25_52T-4" target="74fVWN5UfbGMYc25_52T-7" edge="1">
          <mxGeometry relative="1" as="geometry" />
        </mxCell>
        <mxCell id="74fVWN5UfbGMYc25_52T-4" value="&lt;font style=&quot;font-size: 16px&quot;&gt;Ask for name&lt;/font&gt;" style="shape=parallelogram;perimeter=parallelogramPerimeter;whiteSpace=wrap;html=1;fixedSize=1;fontSize=16;" parent="WIyWlLk6GJQsqaUBKTNV-1" vertex="1">
          <mxGeometry x="320" y="-1408" width="120" height="60" as="geometry" />
        </mxCell>
        <mxCell id="74fVWN5UfbGMYc25_52T-10" style="edgeStyle=orthogonalEdgeStyle;rounded=0;orthogonalLoop=1;jettySize=auto;html=1;fontSize=16;" parent="WIyWlLk6GJQsqaUBKTNV-1" source="74fVWN5UfbGMYc25_52T-7" edge="1">
          <mxGeometry relative="1" as="geometry">
            <mxPoint x="380" y="-1240" as="targetPoint" />
          </mxGeometry>
        </mxCell>
        <mxCell id="74fVWN5UfbGMYc25_52T-7" value="Input" style="shape=parallelogram;perimeter=parallelogramPerimeter;whiteSpace=wrap;html=1;fixedSize=1;fontSize=16;" parent="WIyWlLk6GJQsqaUBKTNV-1" vertex="1">
          <mxGeometry x="320" y="-1330" width="120" height="60" as="geometry" />
        </mxCell>
        <mxCell id="74fVWN5UfbGMYc25_52T-22" style="edgeStyle=orthogonalEdgeStyle;rounded=0;orthogonalLoop=1;jettySize=auto;html=1;fontSize=16;entryX=1;entryY=0.25;entryDx=0;entryDy=0;exitX=1;exitY=0.5;exitDx=0;exitDy=0;" parent="WIyWlLk6GJQsqaUBKTNV-1" source="74fVWN5UfbGMYc25_52T-20" target="74fVWN5UfbGMYc25_52T-4" edge="1">
          <mxGeometry relative="1" as="geometry">
            <mxPoint x="680" y="-1400" as="targetPoint" />
            <Array as="points">
              <mxPoint x="560" y="-1190" />
              <mxPoint x="560" y="-1392" />
            </Array>
          </mxGeometry>
        </mxCell>
        <mxCell id="74fVWN5UfbGMYc25_52T-25" value="false" style="edgeLabel;html=1;align=center;verticalAlign=middle;resizable=0;points=[];fontSize=16;" parent="74fVWN5UfbGMYc25_52T-22" vertex="1" connectable="0">
          <mxGeometry x="-0.5024" y="2" relative="1" as="geometry">
            <mxPoint x="2" y="-51" as="offset" />
          </mxGeometry>
        </mxCell>
        <mxCell id="74fVWN5UfbGMYc25_52T-24" value="true" style="edgeStyle=orthogonalEdgeStyle;rounded=0;orthogonalLoop=1;jettySize=auto;html=1;exitX=0.5;exitY=1;exitDx=0;exitDy=0;fontSize=16;entryX=0.5;entryY=0;entryDx=0;entryDy=0;" parent="WIyWlLk6GJQsqaUBKTNV-1" source="74fVWN5UfbGMYc25_52T-20" target="74fVWN5UfbGMYc25_52T-27" edge="1">
          <mxGeometry relative="1" as="geometry">
            <mxPoint x="380" y="-1000" as="targetPoint" />
            <Array as="points" />
          </mxGeometry>
        </mxCell>
        <mxCell id="74fVWN5UfbGMYc25_52T-20" value="&lt;div style=&quot;font-size: 16px;&quot;&gt;does it qualify for a name? &lt;br style=&quot;font-size: 16px;&quot;&gt;&lt;/div&gt;&lt;div style=&quot;font-size: 16px;&quot;&gt;i.e only contain letters.&lt;/div&gt;" style="rhombus;whiteSpace=wrap;html=1;fontSize=16;" parent="WIyWlLk6GJQsqaUBKTNV-1" vertex="1">
          <mxGeometry x="230" y="-1240" width="300" height="100" as="geometry" />
        </mxCell>
        <mxCell id="74fVWN5UfbGMYc25_52T-26" style="edgeStyle=orthogonalEdgeStyle;rounded=0;orthogonalLoop=1;jettySize=auto;html=1;exitX=0.5;exitY=1;exitDx=0;exitDy=0;entryX=0.5;entryY=0;entryDx=0;entryDy=0;fontSize=16;" parent="WIyWlLk6GJQsqaUBKTNV-1" source="74fVWN5UfbGMYc25_52T-27" target="74fVWN5UfbGMYc25_52T-29" edge="1">
          <mxGeometry relative="1" as="geometry" />
        </mxCell>
        <mxCell id="74fVWN5UfbGMYc25_52T-27" value="&lt;div style=&quot;font-size: 16px;&quot;&gt;&lt;font style=&quot;font-size: 16px&quot;&gt;Ask for&lt;/font&gt;&lt;/div&gt;&lt;div style=&quot;font-size: 16px;&quot;&gt;&lt;font style=&quot;font-size: 16px&quot;&gt;country&lt;br style=&quot;font-size: 16px;&quot;&gt;&lt;/font&gt;&lt;/div&gt;" style="shape=parallelogram;perimeter=parallelogramPerimeter;whiteSpace=wrap;html=1;fixedSize=1;fontSize=16;" parent="WIyWlLk6GJQsqaUBKTNV-1" vertex="1">
          <mxGeometry x="320" y="-1070" width="120" height="60" as="geometry" />
        </mxCell>
        <mxCell id="74fVWN5UfbGMYc25_52T-43" style="edgeStyle=orthogonalEdgeStyle;rounded=0;orthogonalLoop=1;jettySize=auto;html=1;entryX=0.5;entryY=0;entryDx=0;entryDy=0;fontSize=16;" parent="WIyWlLk6GJQsqaUBKTNV-1" source="74fVWN5UfbGMYc25_52T-29" target="74fVWN5UfbGMYc25_52T-33" edge="1">
          <mxGeometry relative="1" as="geometry" />
        </mxCell>
        <mxCell id="74fVWN5UfbGMYc25_52T-29" value="Input" style="shape=parallelogram;perimeter=parallelogramPerimeter;whiteSpace=wrap;html=1;fixedSize=1;fontSize=16;" parent="WIyWlLk6GJQsqaUBKTNV-1" vertex="1">
          <mxGeometry x="320" y="-992" width="120" height="60" as="geometry" />
        </mxCell>
        <mxCell id="74fVWN5UfbGMYc25_52T-30" style="edgeStyle=orthogonalEdgeStyle;rounded=0;orthogonalLoop=1;jettySize=auto;html=1;fontSize=16;entryX=1;entryY=0.25;entryDx=0;entryDy=0;" parent="WIyWlLk6GJQsqaUBKTNV-1" source="74fVWN5UfbGMYc25_52T-33" target="74fVWN5UfbGMYc25_52T-27" edge="1">
          <mxGeometry relative="1" as="geometry">
            <mxPoint x="680" y="-1062" as="targetPoint" />
            <Array as="points">
              <mxPoint x="560" y="-856" />
              <mxPoint x="560" y="-1054" />
            </Array>
          </mxGeometry>
        </mxCell>
        <mxCell id="74fVWN5UfbGMYc25_52T-31" value="false" style="edgeLabel;html=1;align=center;verticalAlign=middle;resizable=0;points=[];fontSize=16;" parent="74fVWN5UfbGMYc25_52T-30" vertex="1" connectable="0">
          <mxGeometry x="-0.5024" y="2" relative="1" as="geometry">
            <mxPoint x="2" y="-71" as="offset" />
          </mxGeometry>
        </mxCell>
        <mxCell id="74fVWN5UfbGMYc25_52T-32" value="true" style="edgeStyle=orthogonalEdgeStyle;rounded=0;orthogonalLoop=1;jettySize=auto;html=1;exitX=0.5;exitY=1;exitDx=0;exitDy=0;fontSize=16;entryX=0.5;entryY=0;entryDx=0;entryDy=0;" parent="WIyWlLk6GJQsqaUBKTNV-1" source="74fVWN5UfbGMYc25_52T-33" target="74fVWN5UfbGMYc25_52T-35" edge="1">
          <mxGeometry relative="1" as="geometry">
            <mxPoint x="380" y="-590" as="targetPoint" />
            <Array as="points" />
          </mxGeometry>
        </mxCell>
        <mxCell id="74fVWN5UfbGMYc25_52T-33" value="Does this country exist?" style="rhombus;whiteSpace=wrap;html=1;fontSize=16;" parent="WIyWlLk6GJQsqaUBKTNV-1" vertex="1">
          <mxGeometry x="260" y="-900" width="240" height="88" as="geometry" />
        </mxCell>
        <mxCell id="74fVWN5UfbGMYc25_52T-34" style="edgeStyle=orthogonalEdgeStyle;rounded=0;orthogonalLoop=1;jettySize=auto;html=1;exitX=0.5;exitY=1;exitDx=0;exitDy=0;entryX=0.5;entryY=0;entryDx=0;entryDy=0;fontSize=16;" parent="WIyWlLk6GJQsqaUBKTNV-1" source="74fVWN5UfbGMYc25_52T-35" target="74fVWN5UfbGMYc25_52T-37" edge="1">
          <mxGeometry relative="1" as="geometry" />
        </mxCell>
        <mxCell id="74fVWN5UfbGMYc25_52T-35" value="&lt;div style=&quot;font-size: 16px;&quot;&gt;&lt;font style=&quot;font-size: 16px&quot;&gt;Ask for&lt;/font&gt;&lt;/div&gt;&lt;div style=&quot;font-size: 16px;&quot;&gt;&lt;font style=&quot;font-size: 16px&quot;&gt;birth date&lt;br style=&quot;font-size: 16px;&quot;&gt;&lt;/font&gt;&lt;/div&gt;" style="shape=parallelogram;perimeter=parallelogramPerimeter;whiteSpace=wrap;html=1;fixedSize=1;fontSize=16;" parent="WIyWlLk6GJQsqaUBKTNV-1" vertex="1">
          <mxGeometry x="320" y="-760" width="120" height="60" as="geometry" />
        </mxCell>
        <mxCell id="74fVWN5UfbGMYc25_52T-44" style="edgeStyle=orthogonalEdgeStyle;rounded=0;orthogonalLoop=1;jettySize=auto;html=1;entryX=0.5;entryY=0;entryDx=0;entryDy=0;fontSize=16;" parent="WIyWlLk6GJQsqaUBKTNV-1" source="74fVWN5UfbGMYc25_52T-37" target="74fVWN5UfbGMYc25_52T-41" edge="1">
          <mxGeometry relative="1" as="geometry" />
        </mxCell>
        <mxCell id="74fVWN5UfbGMYc25_52T-37" value="Input" style="shape=parallelogram;perimeter=parallelogramPerimeter;whiteSpace=wrap;html=1;fixedSize=1;fontSize=16;" parent="WIyWlLk6GJQsqaUBKTNV-1" vertex="1">
          <mxGeometry x="320" y="-682" width="120" height="60" as="geometry" />
        </mxCell>
        <mxCell id="74fVWN5UfbGMYc25_52T-38" style="edgeStyle=orthogonalEdgeStyle;rounded=0;orthogonalLoop=1;jettySize=auto;html=1;fontSize=16;entryX=1;entryY=0.25;entryDx=0;entryDy=0;" parent="WIyWlLk6GJQsqaUBKTNV-1" source="74fVWN5UfbGMYc25_52T-41" target="74fVWN5UfbGMYc25_52T-35" edge="1">
          <mxGeometry relative="1" as="geometry">
            <mxPoint x="680" y="-752" as="targetPoint" />
            <Array as="points">
              <mxPoint x="560" y="-526" />
              <mxPoint x="560" y="-744" />
            </Array>
          </mxGeometry>
        </mxCell>
        <mxCell id="74fVWN5UfbGMYc25_52T-39" value="false" style="edgeLabel;html=1;align=center;verticalAlign=middle;resizable=0;points=[];fontSize=16;" parent="74fVWN5UfbGMYc25_52T-38" vertex="1" connectable="0">
          <mxGeometry x="-0.5024" y="2" relative="1" as="geometry">
            <mxPoint y="-89" as="offset" />
          </mxGeometry>
        </mxCell>
        <mxCell id="74fVWN5UfbGMYc25_52T-47" value="true" style="edgeStyle=orthogonalEdgeStyle;rounded=0;orthogonalLoop=1;jettySize=auto;html=1;exitX=0.5;exitY=1;exitDx=0;exitDy=0;entryX=0.5;entryY=0;entryDx=0;entryDy=0;fontSize=16;" parent="WIyWlLk6GJQsqaUBKTNV-1" source="74fVWN5UfbGMYc25_52T-41" target="74fVWN5UfbGMYc25_52T-70" edge="1">
          <mxGeometry relative="1" as="geometry">
            <mxPoint x="380" y="-400" as="targetPoint" />
          </mxGeometry>
        </mxCell>
        <mxCell id="74fVWN5UfbGMYc25_52T-41" value="&lt;div style=&quot;font-size: 16px;&quot;&gt;Is it in the correct format? &lt;br style=&quot;font-size: 16px;&quot;&gt;&lt;/div&gt;&lt;div style=&quot;font-size: 16px;&quot;&gt;(yyyy-mm-dd)&lt;/div&gt;" style="rhombus;whiteSpace=wrap;html=1;fontSize=16;" parent="WIyWlLk6GJQsqaUBKTNV-1" vertex="1">
          <mxGeometry x="247.5" y="-600" width="265" height="138" as="geometry" />
        </mxCell>
        <mxCell id="74fVWN5UfbGMYc25_52T-147" style="edgeStyle=orthogonalEdgeStyle;rounded=0;orthogonalLoop=1;jettySize=auto;html=1;fontSize=16;" parent="WIyWlLk6GJQsqaUBKTNV-1" source="74fVWN5UfbGMYc25_52T-46" target="74fVWN5UfbGMYc25_52T-145" edge="1">
          <mxGeometry relative="1" as="geometry" />
        </mxCell>
        <mxCell id="74fVWN5UfbGMYc25_52T-46" value="Create traveler" style="rounded=1;whiteSpace=wrap;html=1;fontSize=16;glass=0;strokeWidth=1;shadow=0;" parent="WIyWlLk6GJQsqaUBKTNV-1" vertex="1">
          <mxGeometry x="297.5" y="110" width="165" height="80" as="geometry" />
        </mxCell>
        <mxCell id="74fVWN5UfbGMYc25_52T-151" style="edgeStyle=orthogonalEdgeStyle;rounded=0;orthogonalLoop=1;jettySize=auto;html=1;fontSize=16;" parent="WIyWlLk6GJQsqaUBKTNV-1" source="74fVWN5UfbGMYc25_52T-49" target="74fVWN5UfbGMYc25_52T-51" edge="1">
          <mxGeometry relative="1" as="geometry" />
        </mxCell>
        <mxCell id="74fVWN5UfbGMYc25_52T-49" value="&lt;div style=&quot;font-size: 16px;&quot;&gt;&lt;font style=&quot;font-size: 16px&quot;&gt;Ask for&lt;/font&gt;&lt;/div&gt;&lt;div style=&quot;font-size: 16px;&quot;&gt;&lt;font style=&quot;font-size: 16px&quot;&gt; action&lt;/font&gt;&lt;/div&gt;" style="shape=parallelogram;perimeter=parallelogramPerimeter;whiteSpace=wrap;html=1;fixedSize=1;fontSize=16;" parent="WIyWlLk6GJQsqaUBKTNV-1" vertex="1">
          <mxGeometry x="320" y="690" width="120" height="60" as="geometry" />
        </mxCell>
        <mxCell id="74fVWN5UfbGMYc25_52T-53" style="edgeStyle=orthogonalEdgeStyle;rounded=0;orthogonalLoop=1;jettySize=auto;html=1;fontSize=16;" parent="WIyWlLk6GJQsqaUBKTNV-1" source="74fVWN5UfbGMYc25_52T-51" target="WIyWlLk6GJQsqaUBKTNV-6" edge="1">
          <mxGeometry relative="1" as="geometry" />
        </mxCell>
        <mxCell id="74fVWN5UfbGMYc25_52T-51" value="input" style="shape=parallelogram;perimeter=parallelogramPerimeter;whiteSpace=wrap;html=1;fixedSize=1;fontSize=16;" parent="WIyWlLk6GJQsqaUBKTNV-1" vertex="1">
          <mxGeometry x="320" y="794" width="120" height="60" as="geometry" />
        </mxCell>
        <mxCell id="74fVWN5UfbGMYc25_52T-56" style="edgeStyle=orthogonalEdgeStyle;rounded=0;orthogonalLoop=1;jettySize=auto;html=1;entryX=0.5;entryY=0;entryDx=0;entryDy=0;fontSize=16;" parent="WIyWlLk6GJQsqaUBKTNV-1" source="74fVWN5UfbGMYc25_52T-55" target="74fVWN5UfbGMYc25_52T-1" edge="1">
          <mxGeometry relative="1" as="geometry" />
        </mxCell>
        <mxCell id="74fVWN5UfbGMYc25_52T-55" value="Start" style="ellipse;whiteSpace=wrap;html=1;fontSize=16;" parent="WIyWlLk6GJQsqaUBKTNV-1" vertex="1">
          <mxGeometry x="320" y="-1690" width="120" height="80" as="geometry" />
        </mxCell>
        <mxCell id="74fVWN5UfbGMYc25_52T-88" style="edgeStyle=orthogonalEdgeStyle;rounded=0;orthogonalLoop=1;jettySize=auto;html=1;fontSize=16;" parent="WIyWlLk6GJQsqaUBKTNV-1" source="74fVWN5UfbGMYc25_52T-58" target="74fVWN5UfbGMYc25_52T-61" edge="1">
          <mxGeometry relative="1" as="geometry" />
        </mxCell>
        <mxCell id="74fVWN5UfbGMYc25_52T-58" value="Ask for flight of choice" style="shape=parallelogram;perimeter=parallelogramPerimeter;whiteSpace=wrap;html=1;fixedSize=1;fontSize=16;" parent="WIyWlLk6GJQsqaUBKTNV-1" vertex="1">
          <mxGeometry x="530" y="1094" width="180" height="90" as="geometry" />
        </mxCell>
        <mxCell id="74fVWN5UfbGMYc25_52T-65" style="edgeStyle=orthogonalEdgeStyle;rounded=0;orthogonalLoop=1;jettySize=auto;html=1;entryX=0.5;entryY=0;entryDx=0;entryDy=0;fontSize=16;" parent="WIyWlLk6GJQsqaUBKTNV-1" source="74fVWN5UfbGMYc25_52T-61" target="74fVWN5UfbGMYc25_52T-63" edge="1">
          <mxGeometry relative="1" as="geometry" />
        </mxCell>
        <mxCell id="74fVWN5UfbGMYc25_52T-61" value="input" style="shape=parallelogram;perimeter=parallelogramPerimeter;whiteSpace=wrap;html=1;fixedSize=1;fontSize=16;" parent="WIyWlLk6GJQsqaUBKTNV-1" vertex="1">
          <mxGeometry x="560" y="1234" width="120" height="60" as="geometry" />
        </mxCell>
        <mxCell id="74fVWN5UfbGMYc25_52T-66" value="false" style="edgeStyle=orthogonalEdgeStyle;rounded=0;orthogonalLoop=1;jettySize=auto;html=1;fontSize=16;" parent="WIyWlLk6GJQsqaUBKTNV-1" source="74fVWN5UfbGMYc25_52T-63" target="74fVWN5UfbGMYc25_52T-152" edge="1">
          <mxGeometry relative="1" as="geometry">
            <Array as="points">
              <mxPoint x="1200" y="1369" />
              <mxPoint x="1200" y="610" />
            </Array>
          </mxGeometry>
        </mxCell>
        <mxCell id="74fVWN5UfbGMYc25_52T-69" value="true" style="edgeStyle=orthogonalEdgeStyle;rounded=0;orthogonalLoop=1;jettySize=auto;html=1;fontSize=16;" parent="WIyWlLk6GJQsqaUBKTNV-1" source="74fVWN5UfbGMYc25_52T-63" target="p_1daK5cfYvLZlIFTqny-0" edge="1">
          <mxGeometry relative="1" as="geometry">
            <mxPoint x="620" y="1550" as="targetPoint" />
          </mxGeometry>
        </mxCell>
        <mxCell id="74fVWN5UfbGMYc25_52T-63" value="&lt;div style=&quot;font-size: 16px;&quot;&gt;Can afford?&lt;br style=&quot;font-size: 16px;&quot;&gt;&lt;/div&gt;" style="rhombus;whiteSpace=wrap;html=1;shadow=0;fontFamily=Helvetica;fontSize=16;align=center;strokeWidth=1;spacing=6;spacingTop=-4;" parent="WIyWlLk6GJQsqaUBKTNV-1" vertex="1">
          <mxGeometry x="535" y="1324" width="170" height="90" as="geometry" />
        </mxCell>
        <mxCell id="74fVWN5UfbGMYc25_52T-129" style="edgeStyle=orthogonalEdgeStyle;rounded=0;orthogonalLoop=1;jettySize=auto;html=1;fontSize=16;" parent="WIyWlLk6GJQsqaUBKTNV-1" source="74fVWN5UfbGMYc25_52T-68" target="74fVWN5UfbGMYc25_52T-126" edge="1">
          <mxGeometry relative="1" as="geometry" />
        </mxCell>
        <mxCell id="74fVWN5UfbGMYc25_52T-68" value="First class?" style="shape=parallelogram;perimeter=parallelogramPerimeter;whiteSpace=wrap;html=1;fixedSize=1;fontSize=16;" parent="WIyWlLk6GJQsqaUBKTNV-1" vertex="1">
          <mxGeometry x="525" y="1700" width="190" height="70" as="geometry" />
        </mxCell>
        <mxCell id="74fVWN5UfbGMYc25_52T-76" style="edgeStyle=orthogonalEdgeStyle;rounded=0;orthogonalLoop=1;jettySize=auto;html=1;fontSize=16;" parent="WIyWlLk6GJQsqaUBKTNV-1" source="74fVWN5UfbGMYc25_52T-70" target="74fVWN5UfbGMYc25_52T-209" edge="1">
          <mxGeometry relative="1" as="geometry">
            <mxPoint x="380" y="-230" as="targetPoint" />
          </mxGeometry>
        </mxCell>
        <mxCell id="74fVWN5UfbGMYc25_52T-70" value="Display given info" style="shape=parallelogram;perimeter=parallelogramPerimeter;whiteSpace=wrap;html=1;fixedSize=1;fontSize=16;" parent="WIyWlLk6GJQsqaUBKTNV-1" vertex="1">
          <mxGeometry x="280" y="-410" width="200" height="80" as="geometry" />
        </mxCell>
        <mxCell id="74fVWN5UfbGMYc25_52T-78" value="true" style="edgeStyle=orthogonalEdgeStyle;rounded=0;orthogonalLoop=1;jettySize=auto;html=1;fontSize=16;" parent="WIyWlLk6GJQsqaUBKTNV-1" source="74fVWN5UfbGMYc25_52T-71" target="74fVWN5UfbGMYc25_52T-46" edge="1">
          <mxGeometry relative="1" as="geometry" />
        </mxCell>
        <mxCell id="74fVWN5UfbGMYc25_52T-79" value="false" style="edgeStyle=orthogonalEdgeStyle;rounded=0;orthogonalLoop=1;jettySize=auto;html=1;fontSize=16;" parent="WIyWlLk6GJQsqaUBKTNV-1" source="74fVWN5UfbGMYc25_52T-71" target="74fVWN5UfbGMYc25_52T-82" edge="1">
          <mxGeometry x="-0.9605" relative="1" as="geometry">
            <mxPoint x="265" y="-106" as="sourcePoint" />
            <mxPoint x="130" y="-1390" as="targetPoint" />
            <Array as="points">
              <mxPoint x="200" y="-6" />
              <mxPoint x="200" y="-1465" />
            </Array>
            <mxPoint as="offset" />
          </mxGeometry>
        </mxCell>
        <mxCell id="74fVWN5UfbGMYc25_52T-71" value="Correct?" style="rhombus;whiteSpace=wrap;html=1;fontSize=16;" parent="WIyWlLk6GJQsqaUBKTNV-1" vertex="1">
          <mxGeometry x="265" y="-70" width="230" height="128" as="geometry" />
        </mxCell>
        <mxCell id="74fVWN5UfbGMYc25_52T-211" style="edgeStyle=orthogonalEdgeStyle;rounded=0;orthogonalLoop=1;jettySize=auto;html=1;fontSize=16;" parent="WIyWlLk6GJQsqaUBKTNV-1" source="74fVWN5UfbGMYc25_52T-72" target="74fVWN5UfbGMYc25_52T-71" edge="1">
          <mxGeometry relative="1" as="geometry" />
        </mxCell>
        <mxCell id="74fVWN5UfbGMYc25_52T-72" value="&lt;div style=&quot;font-size: 16px;&quot;&gt;input&lt;/div&gt;" style="shape=parallelogram;perimeter=parallelogramPerimeter;whiteSpace=wrap;html=1;fixedSize=1;fontSize=16;" parent="WIyWlLk6GJQsqaUBKTNV-1" vertex="1">
          <mxGeometry x="307.5" y="-180" width="145" height="70" as="geometry" />
        </mxCell>
        <mxCell id="74fVWN5UfbGMYc25_52T-84" style="edgeStyle=orthogonalEdgeStyle;rounded=0;orthogonalLoop=1;jettySize=auto;html=1;fontSize=16;" parent="WIyWlLk6GJQsqaUBKTNV-1" source="74fVWN5UfbGMYc25_52T-82" target="74fVWN5UfbGMYc25_52T-4" edge="1">
          <mxGeometry relative="1" as="geometry" />
        </mxCell>
        <mxCell id="74fVWN5UfbGMYc25_52T-82" value="&lt;div style=&quot;font-size: 16px;&quot;&gt;prompt&lt;/div&gt;&lt;div style=&quot;font-size: 16px;&quot;&gt;user&lt;br style=&quot;font-size: 16px;&quot;&gt;&lt;/div&gt;" style="rounded=1;whiteSpace=wrap;html=1;fontSize=16;" parent="WIyWlLk6GJQsqaUBKTNV-1" vertex="1">
          <mxGeometry x="320" y="-1490" width="120" height="50" as="geometry" />
        </mxCell>
        <mxCell id="74fVWN5UfbGMYc25_52T-96" value="true" style="edgeStyle=orthogonalEdgeStyle;rounded=0;orthogonalLoop=1;jettySize=auto;html=1;fontSize=16;" parent="WIyWlLk6GJQsqaUBKTNV-1" source="74fVWN5UfbGMYc25_52T-90" target="p_1daK5cfYvLZlIFTqny-10" edge="1">
          <mxGeometry x="-0.1429" relative="1" as="geometry">
            <mxPoint x="620" y="2122" as="targetPoint" />
            <mxPoint as="offset" />
          </mxGeometry>
        </mxCell>
        <mxCell id="74fVWN5UfbGMYc25_52T-130" value="false" style="edgeStyle=orthogonalEdgeStyle;rounded=0;orthogonalLoop=1;jettySize=auto;html=1;fontSize=16;" parent="WIyWlLk6GJQsqaUBKTNV-1" source="74fVWN5UfbGMYc25_52T-90" target="74fVWN5UfbGMYc25_52T-68" edge="1">
          <mxGeometry relative="1" as="geometry">
            <Array as="points">
              <mxPoint x="760" y="1985" />
              <mxPoint x="760" y="1735" />
            </Array>
          </mxGeometry>
        </mxCell>
        <mxCell id="74fVWN5UfbGMYc25_52T-90" value="Can afford?" style="rhombus;whiteSpace=wrap;html=1;shadow=0;fontFamily=Helvetica;fontSize=16;align=center;strokeWidth=1;spacing=6;spacingTop=-4;" parent="WIyWlLk6GJQsqaUBKTNV-1" vertex="1">
          <mxGeometry x="535" y="1940" width="170" height="90" as="geometry" />
        </mxCell>
        <mxCell id="74fVWN5UfbGMYc25_52T-115" value="true" style="edgeStyle=orthogonalEdgeStyle;rounded=0;orthogonalLoop=1;jettySize=auto;html=1;fontSize=16;" parent="WIyWlLk6GJQsqaUBKTNV-1" source="74fVWN5UfbGMYc25_52T-108" target="74fVWN5UfbGMYc25_52T-142" edge="1">
          <mxGeometry relative="1" as="geometry">
            <mxPoint x="620" y="2590" as="targetPoint" />
          </mxGeometry>
        </mxCell>
        <mxCell id="74fVWN5UfbGMYc25_52T-131" style="edgeStyle=orthogonalEdgeStyle;rounded=0;orthogonalLoop=1;jettySize=auto;html=1;fontSize=16;" parent="WIyWlLk6GJQsqaUBKTNV-1" source="74fVWN5UfbGMYc25_52T-108" target="74fVWN5UfbGMYc25_52T-152" edge="1">
          <mxGeometry relative="1" as="geometry">
            <Array as="points">
              <mxPoint x="1280" y="2511" />
              <mxPoint x="1280" y="590" />
            </Array>
          </mxGeometry>
        </mxCell>
        <mxCell id="74fVWN5UfbGMYc25_52T-132" value="false" style="edgeLabel;html=1;align=center;verticalAlign=middle;resizable=0;points=[];fontSize=16;" parent="74fVWN5UfbGMYc25_52T-131" vertex="1" connectable="0">
          <mxGeometry x="-0.9724" y="-2" relative="1" as="geometry">
            <mxPoint x="49" y="-2" as="offset" />
          </mxGeometry>
        </mxCell>
        <mxCell id="74fVWN5UfbGMYc25_52T-108" value="Confirm?" style="rhombus;whiteSpace=wrap;html=1;shadow=0;fontFamily=Helvetica;fontSize=16;align=center;strokeWidth=1;spacing=6;spacingTop=-4;" parent="WIyWlLk6GJQsqaUBKTNV-1" vertex="1">
          <mxGeometry x="535" y="2466" width="170" height="90" as="geometry" />
        </mxCell>
        <mxCell id="74fVWN5UfbGMYc25_52T-112" style="edgeStyle=orthogonalEdgeStyle;rounded=0;orthogonalLoop=1;jettySize=auto;html=1;fontSize=16;" parent="WIyWlLk6GJQsqaUBKTNV-1" source="74fVWN5UfbGMYc25_52T-110" target="74fVWN5UfbGMYc25_52T-118" edge="1">
          <mxGeometry relative="1" as="geometry" />
        </mxCell>
        <mxCell id="74fVWN5UfbGMYc25_52T-110" value="&lt;div style=&quot;font-size: 16px;&quot;&gt;Ask for ticket&lt;br style=&quot;font-size: 16px;&quot;&gt;&lt;/div&gt;&lt;div style=&quot;font-size: 16px;&quot;&gt;confirmation.&lt;br style=&quot;font-size: 16px;&quot;&gt;&lt;/div&gt;" style="shape=parallelogram;perimeter=parallelogramPerimeter;whiteSpace=wrap;html=1;fixedSize=1;fontSize=16;" parent="WIyWlLk6GJQsqaUBKTNV-1" vertex="1">
          <mxGeometry x="525" y="2260" width="190" height="70" as="geometry" />
        </mxCell>
        <mxCell id="74fVWN5UfbGMYc25_52T-133" style="edgeStyle=orthogonalEdgeStyle;rounded=0;orthogonalLoop=1;jettySize=auto;html=1;fontSize=16;" parent="WIyWlLk6GJQsqaUBKTNV-1" target="74fVWN5UfbGMYc25_52T-152" edge="1">
          <mxGeometry relative="1" as="geometry">
            <mxPoint x="360" y="989" as="targetPoint" />
            <Array as="points">
              <mxPoint x="620" y="2850" />
              <mxPoint x="1320" y="2850" />
              <mxPoint x="1320" y="580" />
            </Array>
            <mxPoint x="620" y="2800" as="sourcePoint" />
          </mxGeometry>
        </mxCell>
        <mxCell id="74fVWN5UfbGMYc25_52T-134" value="back to actions" style="edgeLabel;html=1;align=center;verticalAlign=middle;resizable=0;points=[];fontSize=16;" parent="74fVWN5UfbGMYc25_52T-133" vertex="1" connectable="0">
          <mxGeometry x="-0.9096" y="-3" relative="1" as="geometry">
            <mxPoint as="offset" />
          </mxGeometry>
        </mxCell>
        <mxCell id="p_1daK5cfYvLZlIFTqny-19" style="edgeStyle=orthogonalEdgeStyle;rounded=0;orthogonalLoop=1;jettySize=auto;html=1;fontSize=16;" parent="WIyWlLk6GJQsqaUBKTNV-1" source="74fVWN5UfbGMYc25_52T-114" target="p_1daK5cfYvLZlIFTqny-18" edge="1">
          <mxGeometry relative="1" as="geometry" />
        </mxCell>
        <mxCell id="74fVWN5UfbGMYc25_52T-114" value="add ticket to traveler" style="rounded=1;whiteSpace=wrap;html=1;fontSize=16;" parent="WIyWlLk6GJQsqaUBKTNV-1" vertex="1">
          <mxGeometry x="560" y="2690" width="120" height="60" as="geometry" />
        </mxCell>
        <mxCell id="74fVWN5UfbGMYc25_52T-119" style="edgeStyle=orthogonalEdgeStyle;rounded=0;orthogonalLoop=1;jettySize=auto;html=1;fontSize=16;" parent="WIyWlLk6GJQsqaUBKTNV-1" source="74fVWN5UfbGMYc25_52T-118" target="74fVWN5UfbGMYc25_52T-108" edge="1">
          <mxGeometry relative="1" as="geometry" />
        </mxCell>
        <mxCell id="74fVWN5UfbGMYc25_52T-118" value="input" style="shape=parallelogram;perimeter=parallelogramPerimeter;whiteSpace=wrap;html=1;fixedSize=1;fontSize=16;" parent="WIyWlLk6GJQsqaUBKTNV-1" vertex="1">
          <mxGeometry x="525" y="2366" width="190" height="70" as="geometry" />
        </mxCell>
        <mxCell id="74fVWN5UfbGMYc25_52T-127" style="edgeStyle=orthogonalEdgeStyle;rounded=0;orthogonalLoop=1;jettySize=auto;html=1;fontSize=16;" parent="WIyWlLk6GJQsqaUBKTNV-1" source="74fVWN5UfbGMYc25_52T-126" target="74fVWN5UfbGMYc25_52T-90" edge="1">
          <mxGeometry relative="1" as="geometry" />
        </mxCell>
        <mxCell id="74fVWN5UfbGMYc25_52T-126" value="&lt;div style=&quot;font-size: 16px;&quot;&gt;input&lt;/div&gt;" style="shape=parallelogram;perimeter=parallelogramPerimeter;whiteSpace=wrap;html=1;fixedSize=1;fontSize=16;" parent="WIyWlLk6GJQsqaUBKTNV-1" vertex="1">
          <mxGeometry x="525" y="1830" width="190" height="70" as="geometry" />
        </mxCell>
        <mxCell id="74fVWN5UfbGMYc25_52T-144" style="edgeStyle=orthogonalEdgeStyle;rounded=0;orthogonalLoop=1;jettySize=auto;html=1;fontSize=16;" parent="WIyWlLk6GJQsqaUBKTNV-1" source="74fVWN5UfbGMYc25_52T-142" target="74fVWN5UfbGMYc25_52T-114" edge="1">
          <mxGeometry relative="1" as="geometry">
            <mxPoint x="620" y="2680" as="targetPoint" />
          </mxGeometry>
        </mxCell>
        <mxCell id="74fVWN5UfbGMYc25_52T-142" value="&lt;div style=&quot;font-size: 16px;&quot;&gt;withdraw&lt;br style=&quot;font-size: 16px;&quot;&gt;&lt;/div&gt;&lt;div style=&quot;font-size: 16px;&quot;&gt;expenses from&lt;/div&gt;&lt;div style=&quot;font-size: 16px;&quot;&gt;traveler&lt;br style=&quot;font-size: 16px;&quot;&gt;&lt;/div&gt;" style="rounded=1;whiteSpace=wrap;html=1;fontSize=16;" parent="WIyWlLk6GJQsqaUBKTNV-1" vertex="1">
          <mxGeometry x="560" y="2600" width="120" height="60" as="geometry" />
        </mxCell>
        <mxCell id="74fVWN5UfbGMYc25_52T-148" style="edgeStyle=orthogonalEdgeStyle;rounded=0;orthogonalLoop=1;jettySize=auto;html=1;fontSize=16;" parent="WIyWlLk6GJQsqaUBKTNV-1" source="74fVWN5UfbGMYc25_52T-145" target="74fVWN5UfbGMYc25_52T-146" edge="1">
          <mxGeometry relative="1" as="geometry" />
        </mxCell>
        <mxCell id="74fVWN5UfbGMYc25_52T-145" value="Create passport" style="rounded=1;whiteSpace=wrap;html=1;fontSize=16;glass=0;strokeWidth=1;shadow=0;" parent="WIyWlLk6GJQsqaUBKTNV-1" vertex="1">
          <mxGeometry x="297.5" y="220" width="165" height="80" as="geometry" />
        </mxCell>
        <mxCell id="74fVWN5UfbGMYc25_52T-149" style="edgeStyle=orthogonalEdgeStyle;rounded=0;orthogonalLoop=1;jettySize=auto;html=1;fontSize=16;" parent="WIyWlLk6GJQsqaUBKTNV-1" source="74fVWN5UfbGMYc25_52T-146" target="74fVWN5UfbGMYc25_52T-152" edge="1">
          <mxGeometry relative="1" as="geometry">
            <mxPoint x="380" y="460" as="targetPoint" />
          </mxGeometry>
        </mxCell>
        <mxCell id="74fVWN5UfbGMYc25_52T-146" value="Add passport to traveler" style="rounded=1;whiteSpace=wrap;html=1;fontSize=16;glass=0;strokeWidth=1;shadow=0;" parent="WIyWlLk6GJQsqaUBKTNV-1" vertex="1">
          <mxGeometry x="297.5" y="340" width="165" height="80" as="geometry" />
        </mxCell>
        <mxCell id="74fVWN5UfbGMYc25_52T-155" style="edgeStyle=orthogonalEdgeStyle;rounded=0;orthogonalLoop=1;jettySize=auto;html=1;fontSize=16;" parent="WIyWlLk6GJQsqaUBKTNV-1" source="74fVWN5UfbGMYc25_52T-152" target="74fVWN5UfbGMYc25_52T-49" edge="1">
          <mxGeometry relative="1" as="geometry" />
        </mxCell>
        <mxCell id="74fVWN5UfbGMYc25_52T-152" value="Display info &amp;amp; actions" style="shape=parallelogram;perimeter=parallelogramPerimeter;whiteSpace=wrap;html=1;fixedSize=1;fontSize=16;" parent="WIyWlLk6GJQsqaUBKTNV-1" vertex="1">
          <mxGeometry x="250" y="570" width="260" height="80" as="geometry" />
        </mxCell>
        <mxCell id="74fVWN5UfbGMYc25_52T-157" style="edgeStyle=orthogonalEdgeStyle;rounded=0;orthogonalLoop=1;jettySize=auto;html=1;fontSize=16;" parent="WIyWlLk6GJQsqaUBKTNV-1" source="74fVWN5UfbGMYc25_52T-156" target="74fVWN5UfbGMYc25_52T-58" edge="1">
          <mxGeometry relative="1" as="geometry" />
        </mxCell>
        <mxCell id="74fVWN5UfbGMYc25_52T-156" value="&lt;div style=&quot;font-size: 16px;&quot;&gt;display available&lt;/div&gt;&lt;div style=&quot;font-size: 16px;&quot;&gt;flights&lt;br style=&quot;font-size: 16px;&quot;&gt;&lt;/div&gt;" style="shape=parallelogram;perimeter=parallelogramPerimeter;whiteSpace=wrap;html=1;fixedSize=1;fontSize=16;" parent="WIyWlLk6GJQsqaUBKTNV-1" vertex="1">
          <mxGeometry x="530" y="980" width="180" height="90" as="geometry" />
        </mxCell>
        <mxCell id="74fVWN5UfbGMYc25_52T-159" style="edgeStyle=orthogonalEdgeStyle;rounded=0;orthogonalLoop=1;jettySize=auto;html=1;fontSize=16;" parent="WIyWlLk6GJQsqaUBKTNV-1" source="74fVWN5UfbGMYc25_52T-158" target="74fVWN5UfbGMYc25_52T-110" edge="1">
          <mxGeometry relative="1" as="geometry" />
        </mxCell>
        <mxCell id="74fVWN5UfbGMYc25_52T-158" value="Display ticket" style="shape=parallelogram;perimeter=parallelogramPerimeter;whiteSpace=wrap;html=1;fixedSize=1;fontSize=16;" parent="WIyWlLk6GJQsqaUBKTNV-1" vertex="1">
          <mxGeometry x="525" y="2170" width="190" height="70" as="geometry" />
        </mxCell>
        <mxCell id="74fVWN5UfbGMYc25_52T-171" style="edgeStyle=orthogonalEdgeStyle;rounded=0;orthogonalLoop=1;jettySize=auto;html=1;fontSize=16;" parent="WIyWlLk6GJQsqaUBKTNV-1" source="74fVWN5UfbGMYc25_52T-164" target="74fVWN5UfbGMYc25_52T-168" edge="1">
          <mxGeometry relative="1" as="geometry" />
        </mxCell>
        <mxCell id="74fVWN5UfbGMYc25_52T-164" value="Display terminals" style="shape=parallelogram;perimeter=parallelogramPerimeter;whiteSpace=wrap;html=1;fixedSize=1;fontSize=16;" parent="WIyWlLk6GJQsqaUBKTNV-1" vertex="1">
          <mxGeometry x="-240" y="1020" width="260" height="80" as="geometry" />
        </mxCell>
        <mxCell id="74fVWN5UfbGMYc25_52T-174" value="false" style="edgeStyle=orthogonalEdgeStyle;rounded=0;orthogonalLoop=1;jettySize=auto;html=1;fontSize=16;" parent="WIyWlLk6GJQsqaUBKTNV-1" source="74fVWN5UfbGMYc25_52T-166" target="74fVWN5UfbGMYc25_52T-164" edge="1">
          <mxGeometry x="0.1544" relative="1" as="geometry">
            <Array as="points">
              <mxPoint x="90" y="1374" />
              <mxPoint x="90" y="1060" />
            </Array>
            <mxPoint as="offset" />
          </mxGeometry>
        </mxCell>
        <mxCell id="74fVWN5UfbGMYc25_52T-176" value="true" style="edgeStyle=orthogonalEdgeStyle;rounded=0;orthogonalLoop=1;jettySize=auto;html=1;fontSize=16;" parent="WIyWlLk6GJQsqaUBKTNV-1" source="74fVWN5UfbGMYc25_52T-166" target="74fVWN5UfbGMYc25_52T-175" edge="1">
          <mxGeometry relative="1" as="geometry" />
        </mxCell>
        <mxCell id="74fVWN5UfbGMYc25_52T-166" value="&lt;div style=&quot;font-size: 16px;&quot;&gt;Does terminal&lt;/div&gt;&lt;div style=&quot;font-size: 16px;&quot;&gt;exist?&lt;br style=&quot;font-size: 16px;&quot;&gt;&lt;/div&gt;" style="rhombus;whiteSpace=wrap;html=1;shadow=0;fontFamily=Helvetica;fontSize=16;align=center;strokeWidth=1;spacing=6;spacingTop=-4;" parent="WIyWlLk6GJQsqaUBKTNV-1" vertex="1">
          <mxGeometry x="-202.5" y="1334" width="185" height="86" as="geometry" />
        </mxCell>
        <mxCell id="74fVWN5UfbGMYc25_52T-167" style="edgeStyle=orthogonalEdgeStyle;rounded=0;orthogonalLoop=1;jettySize=auto;html=1;fontSize=16;" parent="WIyWlLk6GJQsqaUBKTNV-1" source="74fVWN5UfbGMYc25_52T-168" target="74fVWN5UfbGMYc25_52T-170" edge="1">
          <mxGeometry relative="1" as="geometry" />
        </mxCell>
        <mxCell id="74fVWN5UfbGMYc25_52T-168" value="&lt;div style=&quot;font-size: 16px;&quot;&gt;Ask for&lt;/div&gt;&lt;div style=&quot;font-size: 16px;&quot;&gt;terminal&lt;br style=&quot;font-size: 16px;&quot;&gt;&lt;/div&gt;" style="shape=parallelogram;perimeter=parallelogramPerimeter;whiteSpace=wrap;html=1;fixedSize=1;fontSize=16;" parent="WIyWlLk6GJQsqaUBKTNV-1" vertex="1">
          <mxGeometry x="-170" y="1134" width="120" height="60" as="geometry" />
        </mxCell>
        <mxCell id="74fVWN5UfbGMYc25_52T-169" style="edgeStyle=orthogonalEdgeStyle;rounded=0;orthogonalLoop=1;jettySize=auto;html=1;fontSize=16;" parent="WIyWlLk6GJQsqaUBKTNV-1" source="74fVWN5UfbGMYc25_52T-170" target="74fVWN5UfbGMYc25_52T-166" edge="1">
          <mxGeometry relative="1" as="geometry" />
        </mxCell>
        <mxCell id="74fVWN5UfbGMYc25_52T-170" value="input" style="shape=parallelogram;perimeter=parallelogramPerimeter;whiteSpace=wrap;html=1;fixedSize=1;fontSize=16;" parent="WIyWlLk6GJQsqaUBKTNV-1" vertex="1">
          <mxGeometry x="-170" y="1238" width="120" height="60" as="geometry" />
        </mxCell>
        <mxCell id="74fVWN5UfbGMYc25_52T-191" style="edgeStyle=orthogonalEdgeStyle;rounded=0;orthogonalLoop=1;jettySize=auto;html=1;fontSize=16;" parent="WIyWlLk6GJQsqaUBKTNV-1" source="74fVWN5UfbGMYc25_52T-175" target="74fVWN5UfbGMYc25_52T-152" edge="1">
          <mxGeometry relative="1" as="geometry">
            <Array as="points">
              <mxPoint x="-360" y="1508" />
              <mxPoint x="-360" y="630" />
            </Array>
          </mxGeometry>
        </mxCell>
        <mxCell id="74fVWN5UfbGMYc25_52T-175" value="Set current terminal" style="rounded=1;whiteSpace=wrap;html=1;fontSize=16;" parent="WIyWlLk6GJQsqaUBKTNV-1" vertex="1">
          <mxGeometry x="-170" y="1475" width="120" height="65" as="geometry" />
        </mxCell>
        <mxCell id="74fVWN5UfbGMYc25_52T-181" style="edgeStyle=orthogonalEdgeStyle;rounded=0;orthogonalLoop=1;jettySize=auto;html=1;exitX=0.5;exitY=0;exitDx=0;exitDy=0;fontSize=16;" parent="WIyWlLk6GJQsqaUBKTNV-1" source="74fVWN5UfbGMYc25_52T-177" target="74fVWN5UfbGMYc25_52T-152" edge="1">
          <mxGeometry relative="1" as="geometry">
            <mxPoint x="109.66666666666697" y="610" as="targetPoint" />
            <Array as="points">
              <mxPoint x="200" y="800" />
              <mxPoint x="200" y="640" />
            </Array>
          </mxGeometry>
        </mxCell>
        <mxCell id="74fVWN5UfbGMYc25_52T-177" value="&lt;div style=&quot;font-size: 16px;&quot;&gt;Display terminals &amp;amp;&lt;/div&gt;&lt;div style=&quot;font-size: 16px;&quot;&gt;their flights&lt;br style=&quot;font-size: 16px;&quot;&gt;&lt;/div&gt;" style="shape=parallelogram;perimeter=parallelogramPerimeter;whiteSpace=wrap;html=1;fixedSize=1;fontSize=16;" parent="WIyWlLk6GJQsqaUBKTNV-1" vertex="1">
          <mxGeometry x="100" y="800" width="180" height="60" as="geometry" />
        </mxCell>
        <mxCell id="74fVWN5UfbGMYc25_52T-193" value="go to gate" style="edgeStyle=orthogonalEdgeStyle;rounded=0;orthogonalLoop=1;jettySize=auto;html=1;fontSize=16;" parent="WIyWlLk6GJQsqaUBKTNV-1" source="WIyWlLk6GJQsqaUBKTNV-6" target="74fVWN5UfbGMYc25_52T-200" edge="1">
          <mxGeometry x="-0.8" relative="1" as="geometry">
            <mxPoint x="70" y="1940" as="targetPoint" />
            <mxPoint x="-60" y="1940" as="sourcePoint" />
            <Array as="points">
              <mxPoint x="160" y="950" />
            </Array>
            <mxPoint x="-1" as="offset" />
          </mxGeometry>
        </mxCell>
        <mxCell id="74fVWN5UfbGMYc25_52T-190" value="Display available actions" style="shape=parallelogram;perimeter=parallelogramPerimeter;whiteSpace=wrap;html=1;fixedSize=1;fontSize=16;" parent="WIyWlLk6GJQsqaUBKTNV-1" vertex="1">
          <mxGeometry x="-215" y="1600" width="210" height="60" as="geometry" />
        </mxCell>
        <mxCell id="74fVWN5UfbGMYc25_52T-199" style="edgeStyle=orthogonalEdgeStyle;rounded=0;orthogonalLoop=1;jettySize=auto;html=1;fontSize=16;" parent="WIyWlLk6GJQsqaUBKTNV-1" source="74fVWN5UfbGMYc25_52T-200" target="74fVWN5UfbGMYc25_52T-205" edge="1">
          <mxGeometry relative="1" as="geometry" />
        </mxCell>
        <mxCell id="74fVWN5UfbGMYc25_52T-200" value="Display gates" style="shape=parallelogram;perimeter=parallelogramPerimeter;whiteSpace=wrap;html=1;fixedSize=1;fontSize=16;" parent="WIyWlLk6GJQsqaUBKTNV-1" vertex="1">
          <mxGeometry x="15" y="1605" width="260" height="80" as="geometry" />
        </mxCell>
        <mxCell id="74fVWN5UfbGMYc25_52T-201" value="false" style="edgeStyle=orthogonalEdgeStyle;rounded=0;orthogonalLoop=1;jettySize=auto;html=1;fontSize=16;" parent="WIyWlLk6GJQsqaUBKTNV-1" source="74fVWN5UfbGMYc25_52T-203" target="74fVWN5UfbGMYc25_52T-200" edge="1">
          <mxGeometry x="0.1544" relative="1" as="geometry">
            <Array as="points">
              <mxPoint x="321" y="1959" />
              <mxPoint x="321" y="1645" />
            </Array>
            <mxPoint as="offset" />
          </mxGeometry>
        </mxCell>
        <mxCell id="74fVWN5UfbGMYc25_52T-202" value="true" style="edgeStyle=orthogonalEdgeStyle;rounded=0;orthogonalLoop=1;jettySize=auto;html=1;fontSize=16;" parent="WIyWlLk6GJQsqaUBKTNV-1" source="74fVWN5UfbGMYc25_52T-203" target="74fVWN5UfbGMYc25_52T-208" edge="1">
          <mxGeometry relative="1" as="geometry" />
        </mxCell>
        <mxCell id="74fVWN5UfbGMYc25_52T-203" value="&lt;div style=&quot;font-size: 16px;&quot;&gt;Does gate&lt;/div&gt;&lt;div style=&quot;font-size: 16px;&quot;&gt;exist?&lt;br style=&quot;font-size: 16px;&quot;&gt;&lt;/div&gt;" style="rhombus;whiteSpace=wrap;html=1;shadow=0;fontFamily=Helvetica;fontSize=16;align=center;strokeWidth=1;spacing=6;spacingTop=-4;" parent="WIyWlLk6GJQsqaUBKTNV-1" vertex="1">
          <mxGeometry x="52.5" y="1919" width="185" height="86" as="geometry" />
        </mxCell>
        <mxCell id="74fVWN5UfbGMYc25_52T-204" style="edgeStyle=orthogonalEdgeStyle;rounded=0;orthogonalLoop=1;jettySize=auto;html=1;fontSize=16;" parent="WIyWlLk6GJQsqaUBKTNV-1" source="74fVWN5UfbGMYc25_52T-205" target="74fVWN5UfbGMYc25_52T-207" edge="1">
          <mxGeometry relative="1" as="geometry" />
        </mxCell>
        <mxCell id="74fVWN5UfbGMYc25_52T-205" value="&lt;div style=&quot;font-size: 16px;&quot;&gt;Ask for&lt;/div&gt;&lt;div style=&quot;font-size: 16px;&quot;&gt;gate&lt;br style=&quot;font-size: 16px;&quot;&gt;&lt;/div&gt;" style="shape=parallelogram;perimeter=parallelogramPerimeter;whiteSpace=wrap;html=1;fixedSize=1;fontSize=16;" parent="WIyWlLk6GJQsqaUBKTNV-1" vertex="1">
          <mxGeometry x="85" y="1719" width="120" height="60" as="geometry" />
        </mxCell>
        <mxCell id="74fVWN5UfbGMYc25_52T-206" style="edgeStyle=orthogonalEdgeStyle;rounded=0;orthogonalLoop=1;jettySize=auto;html=1;fontSize=16;" parent="WIyWlLk6GJQsqaUBKTNV-1" source="74fVWN5UfbGMYc25_52T-207" target="74fVWN5UfbGMYc25_52T-203" edge="1">
          <mxGeometry relative="1" as="geometry" />
        </mxCell>
        <mxCell id="74fVWN5UfbGMYc25_52T-207" value="input" style="shape=parallelogram;perimeter=parallelogramPerimeter;whiteSpace=wrap;html=1;fixedSize=1;fontSize=16;" parent="WIyWlLk6GJQsqaUBKTNV-1" vertex="1">
          <mxGeometry x="85" y="1823" width="120" height="60" as="geometry" />
        </mxCell>
        <mxCell id="74fVWN5UfbGMYc25_52T-219" style="edgeStyle=orthogonalEdgeStyle;rounded=0;orthogonalLoop=1;jettySize=auto;html=1;fontSize=16;" parent="WIyWlLk6GJQsqaUBKTNV-1" source="74fVWN5UfbGMYc25_52T-208" target="74fVWN5UfbGMYc25_52T-152" edge="1">
          <mxGeometry relative="1" as="geometry">
            <Array as="points">
              <mxPoint x="-470" y="2093" />
              <mxPoint x="-470" y="620" />
            </Array>
          </mxGeometry>
        </mxCell>
        <mxCell id="74fVWN5UfbGMYc25_52T-208" value="Set current gate" style="rounded=1;whiteSpace=wrap;html=1;fontSize=16;" parent="WIyWlLk6GJQsqaUBKTNV-1" vertex="1">
          <mxGeometry x="85" y="2060" width="120" height="65" as="geometry" />
        </mxCell>
        <mxCell id="74fVWN5UfbGMYc25_52T-210" style="edgeStyle=orthogonalEdgeStyle;rounded=0;orthogonalLoop=1;jettySize=auto;html=1;fontSize=16;" parent="WIyWlLk6GJQsqaUBKTNV-1" source="74fVWN5UfbGMYc25_52T-209" target="74fVWN5UfbGMYc25_52T-72" edge="1">
          <mxGeometry relative="1" as="geometry" />
        </mxCell>
        <mxCell id="74fVWN5UfbGMYc25_52T-209" value="Is info correct?" style="shape=parallelogram;perimeter=parallelogramPerimeter;whiteSpace=wrap;html=1;fixedSize=1;fontSize=16;" parent="WIyWlLk6GJQsqaUBKTNV-1" vertex="1">
          <mxGeometry x="280" y="-290" width="200" height="80" as="geometry" />
        </mxCell>
        <mxCell id="74fVWN5UfbGMYc25_52T-224" value="bad input" style="edgeStyle=orthogonalEdgeStyle;rounded=0;orthogonalLoop=1;jettySize=auto;html=1;fontSize=16;" parent="WIyWlLk6GJQsqaUBKTNV-1" source="74fVWN5UfbGMYc25_52T-212" target="74fVWN5UfbGMYc25_52T-218" edge="1">
          <mxGeometry x="-0.813" relative="1" as="geometry">
            <mxPoint x="-190.00000000000023" y="2830.000000000001" as="targetPoint" />
            <Array as="points">
              <mxPoint x="-150" y="2834.5" />
              <mxPoint x="-150" y="2520" />
            </Array>
            <mxPoint as="offset" />
          </mxGeometry>
        </mxCell>
        <mxCell id="74fVWN5UfbGMYc25_52T-227" value="valid flight" style="edgeStyle=orthogonalEdgeStyle;rounded=0;orthogonalLoop=1;jettySize=auto;html=1;fontSize=16;" parent="WIyWlLk6GJQsqaUBKTNV-1" source="74fVWN5UfbGMYc25_52T-212" target="74fVWN5UfbGMYc25_52T-228" edge="1">
          <mxGeometry relative="1" as="geometry">
            <mxPoint x="177.50000000000045" y="2833" as="targetPoint" />
          </mxGeometry>
        </mxCell>
        <mxCell id="p_1daK5cfYvLZlIFTqny-30" value="exit" style="edgeStyle=orthogonalEdgeStyle;rounded=0;orthogonalLoop=1;jettySize=auto;html=1;fontSize=16;" parent="WIyWlLk6GJQsqaUBKTNV-1" source="74fVWN5UfbGMYc25_52T-212" target="74fVWN5UfbGMYc25_52T-152" edge="1">
          <mxGeometry x="-0.9801" relative="1" as="geometry">
            <Array as="points">
              <mxPoint x="-7" y="2960" />
              <mxPoint x="-550" y="2960" />
              <mxPoint x="-550" y="600" />
            </Array>
            <mxPoint as="offset" />
          </mxGeometry>
        </mxCell>
        <mxCell id="74fVWN5UfbGMYc25_52T-212" value="&lt;div style=&quot;font-size: 16px;&quot;&gt;operate &lt;br style=&quot;font-size: 16px;&quot;&gt;&lt;/div&gt;&lt;div style=&quot;font-size: 16px;&quot;&gt;on&lt;/div&gt;&lt;div style=&quot;font-size: 16px;&quot;&gt;input&lt;br style=&quot;font-size: 16px;&quot;&gt;&lt;/div&gt;" style="rhombus;whiteSpace=wrap;html=1;shadow=0;fontFamily=Helvetica;fontSize=16;align=center;strokeWidth=1;spacing=6;spacingTop=-4;" parent="WIyWlLk6GJQsqaUBKTNV-1" vertex="1">
          <mxGeometry x="-57.5" y="2794.5" width="100" height="80" as="geometry" />
        </mxCell>
        <mxCell id="74fVWN5UfbGMYc25_52T-213" style="edgeStyle=orthogonalEdgeStyle;rounded=0;orthogonalLoop=1;jettySize=auto;html=1;fontSize=16;" parent="WIyWlLk6GJQsqaUBKTNV-1" source="74fVWN5UfbGMYc25_52T-214" target="74fVWN5UfbGMYc25_52T-216" edge="1">
          <mxGeometry relative="1" as="geometry" />
        </mxCell>
        <mxCell id="74fVWN5UfbGMYc25_52T-214" value="Ask for flight" style="shape=parallelogram;perimeter=parallelogramPerimeter;whiteSpace=wrap;html=1;fixedSize=1;fontSize=16;" parent="WIyWlLk6GJQsqaUBKTNV-1" vertex="1">
          <mxGeometry x="-67.5" y="2594.5" width="120" height="60" as="geometry" />
        </mxCell>
        <mxCell id="74fVWN5UfbGMYc25_52T-215" style="edgeStyle=orthogonalEdgeStyle;rounded=0;orthogonalLoop=1;jettySize=auto;html=1;fontSize=16;" parent="WIyWlLk6GJQsqaUBKTNV-1" source="74fVWN5UfbGMYc25_52T-216" target="74fVWN5UfbGMYc25_52T-212" edge="1">
          <mxGeometry relative="1" as="geometry" />
        </mxCell>
        <mxCell id="74fVWN5UfbGMYc25_52T-216" value="input" style="shape=parallelogram;perimeter=parallelogramPerimeter;whiteSpace=wrap;html=1;fixedSize=1;fontSize=16;" parent="WIyWlLk6GJQsqaUBKTNV-1" vertex="1">
          <mxGeometry x="-67.5" y="2698.5" width="120" height="60" as="geometry" />
        </mxCell>
        <mxCell id="74fVWN5UfbGMYc25_52T-217" style="edgeStyle=orthogonalEdgeStyle;rounded=0;orthogonalLoop=1;jettySize=auto;html=1;fontSize=16;" parent="WIyWlLk6GJQsqaUBKTNV-1" source="74fVWN5UfbGMYc25_52T-218" target="74fVWN5UfbGMYc25_52T-214" edge="1">
          <mxGeometry relative="1" as="geometry" />
        </mxCell>
        <mxCell id="74fVWN5UfbGMYc25_52T-218" value="&lt;div style=&quot;font-size: 16px;&quot;&gt;Display flights in &lt;br style=&quot;font-size: 16px;&quot;&gt;&lt;/div&gt;&lt;div style=&quot;font-size: 16px;&quot;&gt;current gate&lt;br style=&quot;font-size: 16px;&quot;&gt;&lt;/div&gt;" style="shape=parallelogram;perimeter=parallelogramPerimeter;whiteSpace=wrap;html=1;fixedSize=1;fontSize=16;" parent="WIyWlLk6GJQsqaUBKTNV-1" vertex="1">
          <mxGeometry x="-112.5" y="2490" width="210" height="60" as="geometry" />
        </mxCell>
        <mxCell id="74fVWN5UfbGMYc25_52T-229" value="false" style="edgeStyle=orthogonalEdgeStyle;rounded=0;orthogonalLoop=1;jettySize=auto;html=1;fontSize=16;exitX=0.551;exitY=0.081;exitDx=0;exitDy=0;exitPerimeter=0;" parent="WIyWlLk6GJQsqaUBKTNV-1" target="74fVWN5UfbGMYc25_52T-218" edge="1">
          <mxGeometry x="-0.5077" relative="1" as="geometry">
            <Array as="points">
              <mxPoint x="271" y="2797" />
              <mxPoint x="271" y="2520" />
            </Array>
            <mxPoint as="offset" />
            <mxPoint x="279.4350000000004" y="2796.9659999999994" as="sourcePoint" />
          </mxGeometry>
        </mxCell>
        <mxCell id="74fVWN5UfbGMYc25_52T-232" value="true" style="edgeStyle=orthogonalEdgeStyle;rounded=0;orthogonalLoop=1;jettySize=auto;html=1;fontSize=16;" parent="WIyWlLk6GJQsqaUBKTNV-1" target="74fVWN5UfbGMYc25_52T-231" edge="1" source="mKmZwNHc9_lIJII-hjff-15">
          <mxGeometry relative="1" as="geometry">
            <mxPoint x="270.00000000000045" y="2876" as="sourcePoint" />
            <Array as="points">
              <mxPoint x="277" y="3100" />
            </Array>
          </mxGeometry>
        </mxCell>
        <mxCell id="mKmZwNHc9_lIJII-hjff-16" value="true" style="edgeStyle=orthogonalEdgeStyle;rounded=0;orthogonalLoop=1;jettySize=auto;html=1;fontSize=16;" edge="1" parent="WIyWlLk6GJQsqaUBKTNV-1" source="74fVWN5UfbGMYc25_52T-228" target="mKmZwNHc9_lIJII-hjff-15">
          <mxGeometry relative="1" as="geometry" />
        </mxCell>
        <mxCell id="74fVWN5UfbGMYc25_52T-228" value="&lt;div style=&quot;font-size: 16px;&quot;&gt;Has ticket for&lt;/div&gt;&lt;div style=&quot;font-size: 16px;&quot;&gt;flight?&lt;br style=&quot;font-size: 16px;&quot;&gt;&lt;/div&gt;" style="rhombus;whiteSpace=wrap;html=1;shadow=0;fontFamily=Helvetica;fontSize=16;align=center;strokeWidth=1;spacing=6;spacingTop=-4;" parent="WIyWlLk6GJQsqaUBKTNV-1" vertex="1">
          <mxGeometry x="185" y="2794.5" width="185" height="86" as="geometry" />
        </mxCell>
        <mxCell id="74fVWN5UfbGMYc25_52T-235" style="edgeStyle=orthogonalEdgeStyle;rounded=0;orthogonalLoop=1;jettySize=auto;html=1;fontSize=16;" parent="WIyWlLk6GJQsqaUBKTNV-1" source="74fVWN5UfbGMYc25_52T-231" target="74fVWN5UfbGMYc25_52T-234" edge="1">
          <mxGeometry relative="1" as="geometry" />
        </mxCell>
        <mxCell id="mKmZwNHc9_lIJII-hjff-17" value="" style="edgeStyle=orthogonalEdgeStyle;rounded=0;orthogonalLoop=1;jettySize=auto;html=1;fontSize=16;" edge="1" parent="WIyWlLk6GJQsqaUBKTNV-1" source="74fVWN5UfbGMYc25_52T-231" target="74fVWN5UfbGMYc25_52T-234">
          <mxGeometry relative="1" as="geometry" />
        </mxCell>
        <mxCell id="74fVWN5UfbGMYc25_52T-231" value="Board plane" style="rounded=1;whiteSpace=wrap;html=1;fontSize=16;" parent="WIyWlLk6GJQsqaUBKTNV-1" vertex="1">
          <mxGeometry y="3070" width="120" height="60" as="geometry" />
        </mxCell>
        <mxCell id="74fVWN5UfbGMYc25_52T-233" style="edgeStyle=orthogonalEdgeStyle;rounded=0;orthogonalLoop=1;jettySize=auto;html=1;exitX=0.5;exitY=1;exitDx=0;exitDy=0;fontSize=16;" parent="WIyWlLk6GJQsqaUBKTNV-1" source="74fVWN5UfbGMYc25_52T-231" target="74fVWN5UfbGMYc25_52T-231" edge="1">
          <mxGeometry relative="1" as="geometry" />
        </mxCell>
        <mxCell id="74fVWN5UfbGMYc25_52T-236" style="edgeStyle=orthogonalEdgeStyle;rounded=0;orthogonalLoop=1;jettySize=auto;html=1;fontSize=16;" parent="WIyWlLk6GJQsqaUBKTNV-1" source="74fVWN5UfbGMYc25_52T-231" target="74fVWN5UfbGMYc25_52T-152" edge="1">
          <mxGeometry relative="1" as="geometry">
            <Array as="points">
              <mxPoint x="-580" y="3100" />
              <mxPoint x="-580" y="590" />
            </Array>
            <mxPoint x="-135" y="3100.000000000001" as="sourcePoint" />
            <mxPoint x="297.5" y="500" as="targetPoint" />
          </mxGeometry>
        </mxCell>
        <mxCell id="mKmZwNHc9_lIJII-hjff-14" style="edgeStyle=orthogonalEdgeStyle;rounded=0;orthogonalLoop=1;jettySize=auto;html=1;fontSize=16;" edge="1" parent="WIyWlLk6GJQsqaUBKTNV-1" source="74fVWN5UfbGMYc25_52T-234" target="mKmZwNHc9_lIJII-hjff-13">
          <mxGeometry relative="1" as="geometry" />
        </mxCell>
        <mxCell id="74fVWN5UfbGMYc25_52T-234" value="Fly to location" style="rounded=1;whiteSpace=wrap;html=1;fontSize=16;" parent="WIyWlLk6GJQsqaUBKTNV-1" vertex="1">
          <mxGeometry x="-215" y="3070" width="120" height="60" as="geometry" />
        </mxCell>
        <mxCell id="p_1daK5cfYvLZlIFTqny-2" style="edgeStyle=orthogonalEdgeStyle;rounded=0;orthogonalLoop=1;jettySize=auto;html=1;fontSize=16;" parent="WIyWlLk6GJQsqaUBKTNV-1" source="p_1daK5cfYvLZlIFTqny-0" target="p_1daK5cfYvLZlIFTqny-1" edge="1">
          <mxGeometry relative="1" as="geometry" />
        </mxCell>
        <mxCell id="p_1daK5cfYvLZlIFTqny-0" value="&lt;font style=&quot;font-size: 16px&quot;&gt;Check for availability&lt;br style=&quot;font-size: 16px;&quot;&gt;&lt;/font&gt;" style="rounded=1;whiteSpace=wrap;html=1;fontSize=16;" parent="WIyWlLk6GJQsqaUBKTNV-1" vertex="1">
          <mxGeometry x="560" y="1475" width="120" height="60" as="geometry" />
        </mxCell>
        <mxCell id="p_1daK5cfYvLZlIFTqny-3" value="false" style="edgeStyle=orthogonalEdgeStyle;rounded=0;orthogonalLoop=1;jettySize=auto;html=1;fontSize=16;" parent="WIyWlLk6GJQsqaUBKTNV-1" source="p_1daK5cfYvLZlIFTqny-1" target="74fVWN5UfbGMYc25_52T-152" edge="1">
          <mxGeometry relative="1" as="geometry">
            <Array as="points">
              <mxPoint x="1240" y="1605" />
              <mxPoint x="1240" y="600" />
            </Array>
          </mxGeometry>
        </mxCell>
        <mxCell id="p_1daK5cfYvLZlIFTqny-5" style="edgeStyle=orthogonalEdgeStyle;rounded=0;orthogonalLoop=1;jettySize=auto;html=1;fontSize=16;" parent="WIyWlLk6GJQsqaUBKTNV-1" source="p_1daK5cfYvLZlIFTqny-1" target="74fVWN5UfbGMYc25_52T-68" edge="1">
          <mxGeometry relative="1" as="geometry">
            <mxPoint x="620" y="1670" as="targetPoint" />
          </mxGeometry>
        </mxCell>
        <mxCell id="p_1daK5cfYvLZlIFTqny-1" value="Is availalbe?" style="rhombus;whiteSpace=wrap;html=1;shadow=0;fontFamily=Helvetica;fontSize=16;align=center;strokeWidth=1;spacing=6;spacingTop=-4;" parent="WIyWlLk6GJQsqaUBKTNV-1" vertex="1">
          <mxGeometry x="535" y="1560" width="170" height="90" as="geometry" />
        </mxCell>
        <mxCell id="p_1daK5cfYvLZlIFTqny-12" style="edgeStyle=orthogonalEdgeStyle;rounded=0;orthogonalLoop=1;jettySize=auto;html=1;fontSize=16;" parent="WIyWlLk6GJQsqaUBKTNV-1" source="p_1daK5cfYvLZlIFTqny-10" target="74fVWN5UfbGMYc25_52T-158" edge="1">
          <mxGeometry relative="1" as="geometry" />
        </mxCell>
        <mxCell id="p_1daK5cfYvLZlIFTqny-10" value="&lt;div style=&quot;font-size: 16px;&quot;&gt;Create ticket&lt;/div&gt;&lt;div style=&quot;font-size: 16px;&quot;&gt;object&lt;br style=&quot;font-size: 16px;&quot;&gt;&lt;/div&gt;" style="rounded=1;whiteSpace=wrap;html=1;fontSize=16;" parent="WIyWlLk6GJQsqaUBKTNV-1" vertex="1">
          <mxGeometry x="560" y="2074" width="120" height="60" as="geometry" />
        </mxCell>
        <mxCell id="p_1daK5cfYvLZlIFTqny-15" style="edgeStyle=orthogonalEdgeStyle;rounded=0;orthogonalLoop=1;jettySize=auto;html=1;fontSize=16;" parent="WIyWlLk6GJQsqaUBKTNV-1" source="p_1daK5cfYvLZlIFTqny-13" target="74fVWN5UfbGMYc25_52T-152" edge="1">
          <mxGeometry relative="1" as="geometry">
            <Array as="points">
              <mxPoint x="590" y="630" />
            </Array>
          </mxGeometry>
        </mxCell>
        <mxCell id="p_1daK5cfYvLZlIFTqny-13" value="Display boardinpass" style="shape=parallelogram;perimeter=parallelogramPerimeter;whiteSpace=wrap;html=1;fixedSize=1;fontSize=16;" parent="WIyWlLk6GJQsqaUBKTNV-1" vertex="1">
          <mxGeometry x="500" y="800" width="180" height="60" as="geometry" />
        </mxCell>
        <mxCell id="p_1daK5cfYvLZlIFTqny-18" value="&lt;div style=&quot;font-size: 16px;&quot;&gt;add traveler &lt;br style=&quot;font-size: 16px;&quot;&gt;&lt;/div&gt;&lt;div style=&quot;font-size: 16px;&quot;&gt;to flight&lt;br style=&quot;font-size: 16px;&quot;&gt;&lt;/div&gt;" style="rounded=1;whiteSpace=wrap;html=1;fontSize=16;" parent="WIyWlLk6GJQsqaUBKTNV-1" vertex="1">
          <mxGeometry x="560" y="2776" width="120" height="60" as="geometry" />
        </mxCell>
        <mxCell id="p_1daK5cfYvLZlIFTqny-25" style="edgeStyle=orthogonalEdgeStyle;rounded=0;orthogonalLoop=1;jettySize=auto;html=1;fontSize=16;" parent="WIyWlLk6GJQsqaUBKTNV-1" source="p_1daK5cfYvLZlIFTqny-23" target="74fVWN5UfbGMYc25_52T-218" edge="1">
          <mxGeometry relative="1" as="geometry" />
        </mxCell>
        <mxCell id="p_1daK5cfYvLZlIFTqny-27" value="false" style="edgeStyle=orthogonalEdgeStyle;rounded=0;orthogonalLoop=1;jettySize=auto;html=1;fontSize=16;" parent="WIyWlLk6GJQsqaUBKTNV-1" source="p_1daK5cfYvLZlIFTqny-23" target="p_1daK5cfYvLZlIFTqny-26" edge="1">
          <mxGeometry relative="1" as="geometry">
            <Array as="points" />
          </mxGeometry>
        </mxCell>
        <mxCell id="p_1daK5cfYvLZlIFTqny-23" value="&lt;div style=&quot;font-size: 16px;&quot;&gt;Is traveler in&lt;/div&gt;&lt;div style=&quot;font-size: 16px;&quot;&gt;a gate?&lt;br style=&quot;font-size: 16px;&quot;&gt;&lt;/div&gt;" style="rhombus;whiteSpace=wrap;html=1;shadow=0;fontFamily=Helvetica;fontSize=16;align=center;strokeWidth=1;spacing=6;spacingTop=-4;" parent="WIyWlLk6GJQsqaUBKTNV-1" vertex="1">
          <mxGeometry x="-100" y="2270" width="185" height="86" as="geometry" />
        </mxCell>
        <mxCell id="p_1daK5cfYvLZlIFTqny-28" style="edgeStyle=orthogonalEdgeStyle;rounded=0;orthogonalLoop=1;jettySize=auto;html=1;fontSize=16;" parent="WIyWlLk6GJQsqaUBKTNV-1" source="p_1daK5cfYvLZlIFTqny-26" target="74fVWN5UfbGMYc25_52T-152" edge="1">
          <mxGeometry relative="1" as="geometry">
            <Array as="points">
              <mxPoint x="-520" y="2313" />
              <mxPoint x="-520" y="610" />
            </Array>
          </mxGeometry>
        </mxCell>
        <mxCell id="p_1daK5cfYvLZlIFTqny-26" value="&lt;div style=&quot;font-size: 16px;&quot;&gt;Tell traveler to &lt;br style=&quot;font-size: 16px;&quot;&gt;&lt;/div&gt;&lt;div style=&quot;font-size: 16px;&quot;&gt;go to a gate&lt;br style=&quot;font-size: 16px;&quot;&gt;&lt;/div&gt;" style="shape=parallelogram;perimeter=parallelogramPerimeter;whiteSpace=wrap;html=1;fixedSize=1;fontSize=16;" parent="WIyWlLk6GJQsqaUBKTNV-1" vertex="1">
          <mxGeometry x="-450" y="2283" width="210" height="60" as="geometry" />
        </mxCell>
        <mxCell id="mKmZwNHc9_lIJII-hjff-3" style="edgeStyle=orthogonalEdgeStyle;rounded=0;orthogonalLoop=1;jettySize=auto;html=1;fontSize=16;" edge="1" parent="WIyWlLk6GJQsqaUBKTNV-1" source="mKmZwNHc9_lIJII-hjff-1" target="mKmZwNHc9_lIJII-hjff-4">
          <mxGeometry relative="1" as="geometry">
            <mxPoint x="870" y="1114" as="targetPoint" />
          </mxGeometry>
        </mxCell>
        <mxCell id="mKmZwNHc9_lIJII-hjff-1" value="How long to wait?" style="shape=parallelogram;perimeter=parallelogramPerimeter;whiteSpace=wrap;html=1;fixedSize=1;fontSize=16;" vertex="1" parent="WIyWlLk6GJQsqaUBKTNV-1">
          <mxGeometry x="740" y="1084" width="120" height="60" as="geometry" />
        </mxCell>
        <mxCell id="mKmZwNHc9_lIJII-hjff-7" style="edgeStyle=orthogonalEdgeStyle;rounded=0;orthogonalLoop=1;jettySize=auto;html=1;fontSize=16;" edge="1" parent="WIyWlLk6GJQsqaUBKTNV-1" source="mKmZwNHc9_lIJII-hjff-4" target="mKmZwNHc9_lIJII-hjff-6">
          <mxGeometry relative="1" as="geometry" />
        </mxCell>
        <mxCell id="mKmZwNHc9_lIJII-hjff-4" value="input" style="shape=parallelogram;perimeter=parallelogramPerimeter;whiteSpace=wrap;html=1;fixedSize=1;fontSize=16;" vertex="1" parent="WIyWlLk6GJQsqaUBKTNV-1">
          <mxGeometry x="910" y="1074" width="120" height="80" as="geometry" />
        </mxCell>
        <mxCell id="mKmZwNHc9_lIJII-hjff-8" value="&lt;div style=&quot;font-size: 16px;&quot;&gt;false&lt;/div&gt;" style="edgeStyle=orthogonalEdgeStyle;rounded=0;orthogonalLoop=1;jettySize=auto;html=1;fontSize=16;" edge="1" parent="WIyWlLk6GJQsqaUBKTNV-1" source="mKmZwNHc9_lIJII-hjff-6" target="mKmZwNHc9_lIJII-hjff-1">
          <mxGeometry x="-0.6279" relative="1" as="geometry">
            <mxPoint as="offset" />
          </mxGeometry>
        </mxCell>
        <mxCell id="mKmZwNHc9_lIJII-hjff-9" style="edgeStyle=orthogonalEdgeStyle;rounded=0;orthogonalLoop=1;jettySize=auto;html=1;fontSize=16;" edge="1" parent="WIyWlLk6GJQsqaUBKTNV-1" source="mKmZwNHc9_lIJII-hjff-6" target="mKmZwNHc9_lIJII-hjff-10">
          <mxGeometry relative="1" as="geometry">
            <mxPoint x="1190" y="1244" as="targetPoint" />
            <Array as="points">
              <mxPoint x="1100" y="1279" />
            </Array>
          </mxGeometry>
        </mxCell>
        <mxCell id="mKmZwNHc9_lIJII-hjff-12" value="true" style="edgeLabel;html=1;align=center;verticalAlign=middle;resizable=0;points=[];fontSize=16;" vertex="1" connectable="0" parent="mKmZwNHc9_lIJII-hjff-9">
          <mxGeometry x="-0.2954" relative="1" as="geometry">
            <mxPoint x="-20" y="54" as="offset" />
          </mxGeometry>
        </mxCell>
        <mxCell id="mKmZwNHc9_lIJII-hjff-6" value="&lt;div style=&quot;font-size: 16px;&quot;&gt;Is correct format?&lt;/div&gt;&lt;div style=&quot;font-size: 16px;&quot;&gt;(HH:mm)&lt;br style=&quot;font-size: 16px;&quot;&gt;&lt;/div&gt;" style="rhombus;whiteSpace=wrap;html=1;shadow=0;fontFamily=Helvetica;fontSize=16;align=center;strokeWidth=1;spacing=6;spacingTop=-4;" vertex="1" parent="WIyWlLk6GJQsqaUBKTNV-1">
          <mxGeometry x="880" y="1224" width="180" height="110" as="geometry" />
        </mxCell>
        <mxCell id="mKmZwNHc9_lIJII-hjff-11" style="edgeStyle=orthogonalEdgeStyle;rounded=0;orthogonalLoop=1;jettySize=auto;html=1;fontSize=16;" edge="1" parent="WIyWlLk6GJQsqaUBKTNV-1" source="mKmZwNHc9_lIJII-hjff-10" target="74fVWN5UfbGMYc25_52T-152">
          <mxGeometry relative="1" as="geometry">
            <Array as="points">
              <mxPoint x="1100" y="620" />
            </Array>
          </mxGeometry>
        </mxCell>
        <mxCell id="mKmZwNHc9_lIJII-hjff-10" value="&lt;div style=&quot;font-size: 16px;&quot;&gt;Set current&lt;/div&gt;&lt;div style=&quot;font-size: 16px;&quot;&gt;time&lt;br style=&quot;font-size: 16px;&quot;&gt;&lt;/div&gt;" style="rounded=1;whiteSpace=wrap;html=1;fontSize=16;" vertex="1" parent="WIyWlLk6GJQsqaUBKTNV-1">
          <mxGeometry x="1040" y="973" width="120" height="65" as="geometry" />
        </mxCell>
        <mxCell id="mKmZwNHc9_lIJII-hjff-13" value="&lt;div style=&quot;font-size: 16px;&quot;&gt;Set current &lt;br style=&quot;font-size: 16px;&quot;&gt;&lt;/div&gt;&lt;div style=&quot;font-size: 16px;&quot;&gt;airport&lt;br style=&quot;font-size: 16px;&quot;&gt;&lt;/div&gt;" style="rounded=1;whiteSpace=wrap;html=1;fontSize=16;" vertex="1" parent="WIyWlLk6GJQsqaUBKTNV-1">
          <mxGeometry x="-440" y="3070" width="120" height="60" as="geometry" />
        </mxCell>
        <mxCell id="mKmZwNHc9_lIJII-hjff-19" value="false" style="edgeStyle=orthogonalEdgeStyle;rounded=0;orthogonalLoop=1;jettySize=auto;html=1;fontSize=16;" edge="1" parent="WIyWlLk6GJQsqaUBKTNV-1" source="mKmZwNHc9_lIJII-hjff-15" target="74fVWN5UfbGMYc25_52T-218">
          <mxGeometry x="-0.8104" relative="1" as="geometry">
            <Array as="points">
              <mxPoint x="400" y="2993" />
              <mxPoint x="400" y="2500" />
            </Array>
            <mxPoint as="offset" />
          </mxGeometry>
        </mxCell>
        <mxCell id="mKmZwNHc9_lIJII-hjff-15" value="Is it boarding time?" style="rhombus;whiteSpace=wrap;html=1;shadow=0;fontFamily=Helvetica;fontSize=16;align=center;strokeWidth=1;spacing=6;spacingTop=-4;" vertex="1" parent="WIyWlLk6GJQsqaUBKTNV-1">
          <mxGeometry x="185" y="2950" width="185" height="86" as="geometry" />
        </mxCell>
      </root>
    </mxGraphModel>
  </diagram>
</mxfile>
